<svg width="36" height="35" viewBox="0 0 36 35" fill="none" xmlns="http://www.w3.org/2000/svg">
<path d="M17.9206 0.338074C8.45202 0.338074 0.758789 8.03131 0.758789 17.4999C0.758789 26.9685 8.45202 34.6617 17.9206 34.6617C27.3892 34.6617 35.0825 26.9685 35.0825 17.4999C35.0825 8.03131 27.3892 0.338074 17.9206 0.338074ZM16.5891 5.93047H23.5722H24.519V5.93047C24.8411 5.93047 25.1575 6.0541 25.3575 6.30655C27.4191 8.90854 25.59 12.884 22.1223 12.884H17.5951C15.9973 12.884 14.4883 13.5941 13.571 14.896C12.4184 16.5215 12.3875 18.5898 13.4489 20.2459C13.4514 20.2498 13.45 20.248 13.4527 20.2518V20.2518C13.6387 20.5179 13.3798 20.8403 13.0864 20.7011C10.4433 19.4475 8.6324 16.7532 8.65915 13.6237C8.68874 9.36283 12.2986 5.93047 16.5891 5.93047ZM19.1634 29.1285H12.5354V29.1285C11.3607 29.1285 10.1131 28.7017 9.72226 27.594C8.84788 25.1156 10.6182 22.175 13.6006 22.175H18.1277C19.7256 22.175 21.2346 21.4649 22.1519 20.163C23.3045 18.5374 23.3354 16.4691 22.274 14.8131C22.2715 14.8092 22.2729 14.811 22.2702 14.8072V14.8072C22.0841 14.5411 22.3431 14.2187 22.6365 14.3579C25.2796 15.6115 27.0905 18.3058 27.0637 21.4353C27.0637 25.6962 23.4538 29.1285 19.1634 29.1285Z" fill="url(#paint0_linear_336:2573)"/>
<defs>
<linearGradient id="paint0_linear_336:2573" x1="0.758788" y1="-1.72135" x2="32.3366" y2="36.0347" gradientUnits="userSpaceOnUse">
<stop stop-color="#00F9BC"/>
<stop offset="1" stop-color="#00DAFC"/>
</linearGradient>
</defs>
</svg>
